# ProBuilder 4.1.0
# https://unity3d.com/unity/features/worldbuilding/probuilder
# 2019-11-21 11:53:29 PM

mtllib ./EraserMesh.mtl
o EraserMesh

g EraserMesh
v -0.03000021 0.00999999 -0.0199995
v -0.48 0.00999999 -0.0199995
v -0.03000021 1.01 -0.0199995
v -0.48 1.01 -0.0199995
v -0.48 0.00999999 -0.1699991
v -0.48 1.01 -0.1699991
v -0.03000021 0.00999999 -0.1699991
v -0.03000021 1.01 -0.1699991
v 0 0 0
v -0.5 0 0
v 0 0.8 0
v -0.5 0.8 0
v -0.5 0 -0.1999998
v -0.5 0.8 -0.1999998
v 0 0 -0.1999998
v 0 0.8 -0.1999998

vt -1.490116E-08 0
vt -0.45 0
vt -1.490116E-08 1
vt -0.45 1
vt -0.15 0
vt -0.15 1
vt 0.45 0
vt 0.45 1
vt 0.15 0
vt 0.15 1
vt 1.490116E-08 -0.15
vt 0.45 -0.15
vt -0.45 -0.15
vt -0.5 0
vt 0 0.8
vt -0.5 0.8
vt -0.2 0
vt -0.2 0.8
vt 0.5 0
vt 0.5 0.8
vt 0.2 0
vt 0.2 0.8
vt 0 -0.2
vt 0.5 -0.2
vt -0.5 -0.2

vn 0 0 1
vn -1 0 0
vn 0 0 -1
vn 1 0 0
vn 0 1 0
vn 0 -1 0

usemtl ProBuilderDefault
f 3/3/1 4/4/1 2/2/1 1/1/1
f 4/3/2 6/6/2 5/5/2 2/1/2
f 6/8/3 8/3/3 7/1/3 5/7/3
f 8/10/4 3/3/4 1/1/4 7/9/4
f 8/11/5 6/12/5 4/7/5 3/1/5
f 1/1/6 2/2/6 5/13/6 7/11/6
f 11/15/1 12/16/1 10/14/1 9/1/1
f 12/15/2 14/18/2 13/17/2 10/1/2
f 14/20/3 16/15/3 15/1/3 13/19/3
f 16/22/4 11/15/4 9/1/4 15/21/4
f 16/23/5 14/24/5 12/19/5 11/1/5
f 9/1/6 10/14/6 13/25/6 15/23/6

